<?xml version="1.0" encoding="UTF-8"?><svg id="Lag_1" xmlns="http://www.w3.org/2000/svg" width="1024" height="769" xmlns:xlink="http://www.w3.org/1999/xlink" viewBox="0 0 1024 769"><defs><style>.cls-1{fill:#201513;}</style></defs><rect x="527" y="452" width="447" height="281"/><rect x="36" y="452" width="447" height="281"/><rect x="41" y="151" width="447" height="281"/><rect x="527" y="151" width="447" height="281"/><g><path d="M375.48,23.12h-3.34v-2.9h9.86v2.9h-3.34v17.4h-3.19V23.12Z"/><path d="M383.54,20.22h8.7v2.9h-5.51v5.37h4.38v2.9h-4.38v6.24h5.51v2.9h-8.7V20.22Z"/><path d="M394.07,20.22h4.55l2.03,14.53h.06l2.03-14.53h4.55v20.3h-3.02v-15.37h-.06l-2.32,15.37h-2.67l-2.32-15.37h-.06v15.37h-2.78V20.22Z"/><path d="M412.14,20.22h4.32l3.31,20.3h-3.19l-.58-4.03v.06h-3.63l-.58,3.97h-2.96l3.31-20.3Zm3.48,13.58l-1.42-10.04h-.06l-1.39,10.04h2.87Z"/><path d="M425.85,35.71v-1.6h3.02v1.83c0,1.45,.64,1.97,1.65,1.97s1.65-.52,1.65-1.97v-4.55c0-1.45-.64-2-1.65-2s-1.65,.55-1.65,2v.17h-3.02l.58-11.34h8.41v2.9h-5.57l-.26,4.84h.06c.58-.96,1.48-1.48,2.76-1.48,2.35,0,3.54,1.65,3.54,4.64v4.58c0,3.25-1.62,5.11-4.76,5.11s-4.76-1.86-4.76-5.11Z"/><path d="M441.72,28.92h6.38v2.9h-6.38v-2.9Z"/><path d="M454.42,35.71v-10.67c0-3.25,1.62-5.1,4.76-5.1s4.76,1.86,4.76,5.1v1.74h-3.02v-1.94c0-1.45-.64-2-1.65-2s-1.65,.55-1.65,2v11.11c0,1.45,.64,1.97,1.65,1.97s1.65-.52,1.65-1.97v-3.97h-1.6v-2.9h4.61v6.64c0,3.25-1.62,5.11-4.76,5.11s-4.76-1.86-4.76-5.11Z"/><path d="M465.99,20.22h4.73c3.31,0,4.73,1.54,4.73,4.67v1.25c0,2.09-.67,3.42-2.09,4v.06c1.6,.49,2.12,2,2.12,4.29v3.57c0,.99,.03,1.71,.35,2.46h-3.25c-.17-.52-.29-.84-.29-2.49v-3.71c0-1.88-.55-2.49-2-2.49h-1.1v8.7h-3.19V20.22Zm4.35,8.7c1.19,0,1.91-.52,1.91-2.15v-1.57c0-1.45-.49-2.09-1.62-2.09h-1.45v5.8h1.16Z"/><path d="M477.56,35.71v-15.49h3.19v15.72c0,1.45,.61,1.97,1.62,1.97s1.62-.52,1.62-1.97v-15.72h3.07v15.49c0,3.25-1.62,5.11-4.76,5.11s-4.76-1.86-4.76-5.11Z"/><path d="M489.33,20.22h4l3.1,12.15h.06v-12.15h2.84v20.3h-3.28l-3.83-14.82h-.06v14.82h-2.84V20.22Z"/><path d="M501.71,20.22h4.87c3.19,0,4.76,1.77,4.76,5.02v10.27c0,3.25-1.57,5.02-4.76,5.02h-4.87V20.22Zm4.81,17.4c1.02,0,1.62-.52,1.62-1.97v-10.56c0-1.45-.61-1.97-1.62-1.97h-1.62v14.5h1.62Z"/><path d="M513.49,20.22h3.19v17.4h5.25v2.9h-8.44V20.22Z"/><path d="M528.11,20.22h10.47v2.9h-5.51v5.37h4.38v2.9h-4.38v6.24h5.51v2.9h-8.7v-3.97h-3.13l-1.01,3.97h-3.05l5.42-20.3Zm1.77,13.58v-9.66h-.06l-2.38,9.66h2.44Z"/><path d="M540.17,35.71v-10.67c0-3.25,1.62-5.1,4.76-5.1s4.76,1.86,4.76,5.1v1.74h-3.02v-1.94c0-1.45-.64-2-1.65-2s-1.65,.55-1.65,2v11.11c0,1.45,.64,1.97,1.65,1.97s1.65-.52,1.65-1.97v-3.97h-1.6v-2.9h4.61v6.64c0,3.25-1.62,5.11-4.76,5.11s-4.76-1.86-4.76-5.11Z"/><path d="M551.51,35.71v-10.67c0-3.25,1.62-5.1,4.76-5.1s4.76,1.86,4.76,5.1v1.74h-3.02v-1.94c0-1.45-.64-2-1.65-2s-1.65,.55-1.65,2v11.11c0,1.45,.64,1.97,1.65,1.97s1.65-.52,1.65-1.97v-3.97h-1.59v-2.9h4.61v6.64c0,3.25-1.62,5.11-4.76,5.11s-4.76-1.86-4.76-5.11Z"/><path d="M563.08,20.22h8.7v2.9h-5.51v5.37h4.38v2.9h-4.38v6.24h5.51v2.9h-8.7V20.22Z"/><path d="M573.6,20.22h4l3.1,12.15h.06v-12.15h2.84v20.3h-3.28l-3.83-14.82h-.06v14.82h-2.84V20.22Z"/><path d="M585.99,20.22h4.87c3.19,0,4.76,1.77,4.76,5.02v10.27c0,3.25-1.57,5.02-4.76,5.02h-4.87V20.22Zm4.81,17.4c1.02,0,1.62-.52,1.62-1.97v-10.56c0-1.45-.61-1.97-1.62-1.97h-1.62v14.5h1.62Z"/><path d="M597.76,20.22h8.7v2.9h-5.51v5.37h4.38v2.9h-4.38v6.24h5.51v2.9h-8.7V20.22Z"/><path d="M612.93,20.22h3.19v20.3h-3.19V20.22Z"/><path d="M618.5,20.22h4l3.1,12.15h.06v-12.15h2.84v20.3h-3.28l-3.83-14.82h-.06v14.82h-2.84V20.22Z"/><path d="M630.88,20.22h4.87c3.19,0,4.76,1.77,4.76,5.02v10.27c0,3.25-1.57,5.02-4.76,5.02h-4.87V20.22Zm4.81,17.4c1.02,0,1.62-.52,1.62-1.97v-10.56c0-1.45-.61-1.97-1.62-1.97h-1.62v14.5h1.62Z"/><path d="M642.65,20.22h3.19v8.27h3.42v-8.27h3.19v20.3h-3.19v-9.14h-3.42v9.14h-3.19V20.22Z"/><path d="M654.6,35.71v-10.67c0-3.25,1.71-5.1,4.84-5.1s4.84,1.86,4.84,5.1v10.67c0,3.25-1.71,5.11-4.84,5.11s-4.84-1.86-4.84-5.11Zm6.5,.2v-11.08c0-1.45-.64-2-1.65-2s-1.65,.55-1.65,2v11.08c0,1.45,.64,2,1.65,2s1.65-.55,1.65-2Z"/><path d="M666.43,20.22h3.19v17.4h5.25v2.9h-8.44V20.22Z"/><path d="M676.41,20.22h4.87c3.19,0,4.76,1.77,4.76,5.02v10.27c0,3.25-1.57,5.02-4.76,5.02h-4.87V20.22Zm4.81,17.4c1.02,0,1.62-.52,1.62-1.97v-10.56c0-1.45-.61-1.97-1.62-1.97h-1.62v14.5h1.62Z"/></g><g><path d="M479.44,61.22h5.99c4.07,0,6.07,2.26,6.07,6.4v2.55c0,4.14-2,6.4-6.07,6.4h-1.92v10.55h-4.07v-25.9Zm5.99,11.66c1.29,0,2-.59,2-2.44v-3.07c0-1.85-.7-2.44-2-2.44h-1.92v7.96h1.92Z"/><path d="M493.72,61.22h4.07v25.9h-4.07v-25.9Z"/><path d="M500.82,61.22h4.07v22.2h6.7v3.7h-10.77v-25.9Z"/><path d="M513.1,80.98v-13.62c0-4.14,2.18-6.51,6.18-6.51s6.18,2.37,6.18,6.51v13.62c0,4.14-2.18,6.51-6.18,6.51s-6.18-2.37-6.18-6.51Zm8.29,.26v-14.13c0-1.85-.81-2.55-2.11-2.55s-2.11,.7-2.11,2.55v14.13c0,1.85,.81,2.55,2.11,2.55s2.11-.7,2.11-2.55Z"/><path d="M531.23,64.92h-4.25v-3.7h12.58v3.7h-4.26v22.2h-4.07v-22.2Z"/><path d="M540.82,80.98v-1.48h3.85v1.78c0,1.85,.81,2.52,2.11,2.52s2.11-.67,2.11-2.59c0-2.15-.81-3.51-3.48-5.85-3.4-3-4.51-5.11-4.51-8.07,0-4.07,2.11-6.44,6.07-6.44s5.92,2.37,5.92,6.51v1.07h-3.85v-1.33c0-1.85-.74-2.55-2.04-2.55s-2.04,.7-2.04,2.48c0,1.89,.85,3.26,3.51,5.59,3.4,3,4.48,5.07,4.48,8.29,0,4.22-2.15,6.59-6.14,6.59s-5.99-2.37-5.99-6.51Z"/><path d="M555.28,61.22h4.07v25.9h-4.07v-25.9Z"/><path d="M565.57,64.92h-4.26v-3.7h12.58v3.7h-4.25v22.2h-4.07v-22.2Z"/><path d="M575.86,61.22h11.1v3.7h-7.03v6.85h5.59v3.7h-5.59v7.96h7.03v3.7h-11.1v-25.9Z"/></g><image width="2880" height="1628" transform="translate(546 473) scale(.15)" xlink:href="../../05_indhold/pilotsite/img/bg2.png"/><image width="4030" height="3022" transform="translate(54 473) scale(.1 .08)" xlink:href="pilotsite1.png"/><image width="2864" height="1604" transform="translate(541 166) scale(.15 .16)" xlink:href="../../05_indhold/pilotsite/img/bredformat.png"/><rect class="cls-1" x="55" y="166" width="420" height="251"/></svg>